<?xml version="1.0" encoding="UTF-8" standalone="no"?>
<!-- Created with Inkscape (http://www.inkscape.org/) -->
<svg
   xmlns:dc="http://purl.org/dc/elements/1.1/"
   xmlns:cc="http://creativecommons.org/ns#"
   xmlns:rdf="http://www.w3.org/1999/02/22-rdf-syntax-ns#"
   xmlns:svg="http://www.w3.org/2000/svg"
   xmlns="http://www.w3.org/2000/svg"
   xmlns:sodipodi="http://sodipodi.sourceforge.net/DTD/sodipodi-0.dtd"
   xmlns:inkscape="http://www.inkscape.org/namespaces/inkscape"
   id="svg2"
   sodipodi:version="0.32"
   inkscape:version="0.46"
   width="100%"
   height="100%"
   viewBox="0 0 55 72"
   version="1.0"
   sodipodi:docname="lud.svg"
   inkscape:output_extension="org.inkscape.output.svg.inkscape">
  <metadata
     id="metadata7">
    <rdf:RDF>
      <cc:Work
         rdf:about="">
        <dc:format>image/svg+xml</dc:format>
        <dc:type
           rdf:resource="http://purl.org/dc/dcmitype/StillImage" />
      </cc:Work>
    </rdf:RDF>
  </metadata>
  <defs
     id="defs5">
    <inkscape:perspective
       sodipodi:type="inkscape:persp3d"
       inkscape:vp_x="0 : 526.18109 : 1"
       inkscape:vp_y="0 : 1000 : 0"
       inkscape:vp_z="744.09448 : 526.18109 : 1"
       inkscape:persp3d-origin="372.04724 : 350.78739 : 1"
       id="perspective9" />
  </defs>
  <sodipodi:namedview
     inkscape:window-height="951"
     inkscape:window-width="1280"
     inkscape:pageshadow="2"
     inkscape:pageopacity="0.0"
     guidetolerance="10.0"
     gridtolerance="10.0"
     objecttolerance="10.0"
     borderopacity="1.0"
     bordercolor="#666666"
     pagecolor="#ffffff"
     id="base"
     showgrid="false"
     inkscape:zoom="3.5285714"
     inkscape:cx="84.720176"
     inkscape:cy="42.189697"
     inkscape:window-x="0"
     inkscape:window-y="25"
     inkscape:current-layer="svg2" />
  <path
     style="fill:#000000;fill-opacity:0.98813058;fill-rule:evenodd;stroke:none;stroke-width:1px;stroke-linecap:butt;stroke-linejoin:miter;stroke-opacity:1"
     d="M 34.390899,47.070007 C 34.390899,47.070007 34.748215,54.170807 35.244166,54.241657 C 36.053798,54.357319 37.320751,54.769025 37.757633,53.446346 C 37.984244,52.760269 35.347377,45.936404 35.347377,45.936404"
     id="path3194"
     sodipodi:nodetypes="cccc" />
  <path
     style="fill:#f4fabc;fill-opacity:1;fill-rule:evenodd;stroke:#000000;stroke-width:1px;stroke-linecap:butt;stroke-linejoin:miter;stroke-opacity:1"
     d="M 24.146535,46.860837 C 24.146535,46.860837 22.640968,64.803651 23.916272,66.380068 C 24.594718,67.221716 36.227547,65.485782 37.041272,63.723186 C 37.661211,62.377032 34.774065,47.002538 34.774065,47.002538"
     id="path3178"
     sodipodi:nodetypes="cccc" />
  <path
     style="fill:#f4fabc;fill-opacity:1;fill-rule:evenodd;stroke:#000000;stroke-width:1px;stroke-linecap:butt;stroke-linejoin:miter;stroke-opacity:1"
     d="M 32.790259,8.1766271 C 24.436974,8.1766271 7.2841861,25.621279 7.2841861,28.439785 C 7.2841861,32.085877 25.746336,48.896828 28.15565,49.401374 C 32.643798,49.200207 48.984277,37.48539 50.641561,33.15028 C 51.216024,26.762024 39.219629,8.1766271 32.790259,8.1766271 z"
     id="path2384"
     sodipodi:nodetypes="ccccc" />
  <path
     sodipodi:type="arc"
     style="fill:#ffffff;stroke:#000000;stroke-opacity:1"
     id="path2386"
     sodipodi:cx="29.261133"
     sodipodi:cy="34.645748"
     sodipodi:rx="8.2894735"
     sodipodi:ry="8.2894735"
     d="M 37.550607,34.645748 A 8.2894735,8.2894735 0 1 1 20.97166,34.645748 A 8.2894735,8.2894735 0 1 1 37.550607,34.645748 z"
     transform="matrix(0.9516352,0,0,0.9516352,0.9888792,1.9757336)" />
  <path
     sodipodi:type="arc"
     style="fill:#ffffff;stroke:#000000;stroke-opacity:1"
     id="path2388"
     sodipodi:cx="29.261133"
     sodipodi:cy="34.645748"
     sodipodi:rx="8.2894735"
     sodipodi:ry="8.2894735"
     d="M 37.550607,34.645748 A 8.2894735,8.2894735 0 1 1 20.97166,34.645748 A 8.2894735,8.2894735 0 1 1 37.550607,34.645748 z"
     transform="matrix(0.8952096,0,0,0.8952096,20.978004,-7.7474849)" />
  <path
     style="fill:none;fill-rule:evenodd;stroke:#000000;stroke-width:1px;stroke-linecap:butt;stroke-linejoin:miter;stroke-opacity:1"
     d="M 44.834794,34.249501 L 41.717385,35.949906"
     id="path3166" />
  <path
     style="fill:#bc103f;fill-opacity:1;fill-rule:evenodd;stroke:#000000;stroke-width:1px;stroke-linecap:butt;stroke-linejoin:miter;stroke-opacity:1"
     d="M 40.442081,43.034926 C 40.442081,43.034926 42.071636,46.435737 43.311515,46.577437 C 45.182208,46.79123 47.279126,44.593631 47.279126,43.601728 C 47.279126,42.397275 44.267992,40.059218 44.267992,40.059218"
     id="path3168"
     sodipodi:nodetypes="cccc" />
  <path
     sodipodi:type="arc"
     style="fill:#000000;fill-opacity:1;stroke:none;stroke-opacity:1"
     id="path3170"
     sodipodi:cx="-20.440252"
     sodipodi:cy="46.553829"
     sodipodi:rx="0.80157852"
     sodipodi:ry="0.80157852"
     d="M -19.638674,46.553829 A 0.80157852,0.80157852 0 1 1 -21.241831,46.553829 A 0.80157852,0.80157852 0 1 1 -19.638674,46.553829 z"
     transform="translate(47.644071,-9.6810797)" />
  <path
     sodipodi:type="arc"
     style="fill:#000000;fill-opacity:1;stroke:none;stroke-opacity:1"
     id="path3172"
     sodipodi:cx="-20.440252"
     sodipodi:cy="46.553829"
     sodipodi:rx="0.80157852"
     sodipodi:ry="0.80157852"
     d="M -19.638674,46.553829 A 0.80157852,0.80157852 0 1 1 -21.241831,46.553829 A 0.80157852,0.80157852 0 1 1 -19.638674,46.553829 z"
     transform="translate(71.390836,-23.934149)" />
  <path
     style="fill:#000000;fill-opacity:1;fill-rule:evenodd;stroke:none;stroke-width:1px;stroke-linecap:butt;stroke-linejoin:miter;stroke-opacity:1"
     d="M 22.193952,12.825392 C 22.193952,12.825392 13.777378,4.1583243 13.576983,2.6052658 C 13.416575,1.3621039 16.282311,0.050234252 17.985665,0.00013555157 C 19.588911,-0.047018748 24.197899,12.224208 24.197899,12.224208 L 23.797109,12.424603"
     id="path3174"
     sodipodi:nodetypes="ccccc" />
  <path
     style="fill:#000000;fill-opacity:1;fill-rule:evenodd;stroke:none;stroke-width:1px;stroke-linecap:butt;stroke-linejoin:miter;stroke-opacity:1"
     d="M 7.5651435,27.303904 C 7.5651435,27.303904 -0.049852542,18.887329 0.00024611758,16.131903 C 0.028302048,14.588827 2.4049817,13.376477 3.7075468,13.376477 C 5.1112036,13.376477 8.2665248,26.452227 8.2665248,26.452227"
     id="path3176"
     sodipodi:nodetypes="cccc" />
  <path
     style="fill:#000000;fill-opacity:0.98813058;fill-rule:evenodd;stroke:none;stroke-width:1px;stroke-linecap:butt;stroke-linejoin:miter;stroke-opacity:1"
     d="M 23.827709,65.990392 C 23.827709,65.990392 23.190056,70.383105 23.686008,71.339583 C 24.378038,72.674213 25.576447,71.474213 26.272041,71.339582 C 26.767992,71.162456 29.035199,66.132092 29.035199,66.132092"
     id="path3180"
     sodipodi:nodetypes="cccc" />
  <path
     style="fill:#000000;fill-opacity:0.98813058;fill-rule:evenodd;stroke:none;stroke-width:1px;stroke-linecap:butt;stroke-linejoin:miter;stroke-opacity:1"
     d="M 32.010907,65.706991 C 32.010907,65.706991 32.613134,68.859825 33.250786,69.036951 C 34.427746,69.363884 36.656214,67.785526 36.934996,67.08857 C 37.218397,66.380068 36.651596,64.219137 36.651596,64.219137"
     id="path3182"
     sodipodi:nodetypes="cccc" />
  <path
     style="fill:#000000;fill-opacity:0.98813058;fill-rule:evenodd;stroke:none;stroke-width:1px;stroke-linecap:butt;stroke-linejoin:miter;stroke-opacity:1"
     d="M 23.792284,53.804157 C 23.792284,53.804157 26.980543,59.224198 27.58277,59.330473 C 28.673203,59.522902 29.778475,57.065613 29.53115,56.46104 C 29.212324,55.681688 24.04026,51.643226 24.04026,51.643226"
     id="path3192"
     sodipodi:nodetypes="cccc" />
  <path
     style="fill:#fc089d;fill-rule:evenodd;stroke:#000000;stroke-width:0.29999999999999999;stroke-linecap:butt;stroke-linejoin:miter;stroke-opacity:1;fill-opacity:0.65578634000000002;stroke-miterlimit:4;stroke-dasharray:none;"
     d="M 30.890688,48.866655 C 30.890688,48.866655 29.457453,61.065283 30.040486,61.761392 C 30.497883,62.308041 34.628928,62.114184 35,61.336291 C 35.32186,60.661863 29.757085,49.575157 29.757085,49.575157 L 30.890688,48.866655 z"
     id="path3336"
     sodipodi:nodetypes="ccccc" />
</svg>
