<?xml version="1.0" encoding="UTF-8" standalone="no"?><svg xmlns:svg="http://www.w3.org/2000/svg" xmlns="http://www.w3.org/2000/svg" width="100%" height="100%" viewBox="0 0 55 72"><path d="m34.39,47.07 c0,0 0.35,7.10 0.85,7.17 0.80,0.11 2.07,0.52 2.51,-0.79 0.22,-0.68 -2.41,-7.50 -2.41,-7.50" style="fill:#000;stroke:none" /><path d="m24.14,46.86 c0,0 -1.50,17.94 -0.23,19.51 0.67,0.84 12.31,-0.89 13.12,-2.65 0.61,-1.34 -2.26,-16.72 -2.26,-16.72" style="fill:#f4fabc;stroke:#000;stroke-width:1px;" /><path d="m32.79,8.17 c-8.35,0 -25.50,17.44 -25.50,20.26 0,3.64 18.46,20.45 20.87,20.96 C 32.64,49.20 48.98,37.48 50.64,33.15 51.21,26.76 39.21,8.17 32.79,8.17 z" style="fill:#f4fabc;stroke:#000;stroke-width:1px;" /><path d="m37.55,34.64 a8.28,8.28 0 1 1 -16.57,0 8.28,8.28 0 1 1 16.57,0 z" transform="matrix(0.95,0,0,0.95,0.98,1.97)" style="fill:#ffffff;stroke:#000;stroke-opacity:1" /><path d="m37.55,34.64 a8.28,8.28 0 1 1 -16.57,0 8.28,8.28 0 1 1 16.57,0 z" transform="matrix(0.89,0,0,0.89,20.97,-7.74)" style="fill:#ffffff;stroke:#000;stroke-opacity:1" /><path d="m44.83,34.24 -3.11,1.70" style="fill:none;stroke:#000;stroke-width:1px;" /><path d="m40.44,43.03 c0,0 1.62,3.40 2.86,3.54 1.87,0.21 3.96,-1.98 3.96,-2.97 0,-1.20 -3.01,-3.54 -3.01,-3.54" style="fill:#bc103f;stroke:#000;stroke-width:1px;" /><path d="m-19.63,46.55 a0.80,0.80 0 1 1 -1.60,0 0.80,0.80 0 1 1 1.60,0 z" transform="translate(47.64,-9.68)" style="fill:#000;stroke:none" /><path d="m-19.63,46.55 a0.80,0.80 0 1 1 -1.60,0 0.80,0.80 0 1 1 1.60,0 z" transform="translate(71.39,-23.93)" style="fill:#000;stroke:none" /><path d="m22.19,12.82 c0,0 -8.41,-8.66 -8.61,-10.22 C 13.41,1.36 16.28,0.05 17.98,1.35e-4 19.58,-0.04 24.19,12.22 24.19,12.22 l-0.40,0.20" style="fill:#000;stroke:none" /><path d="m7.56,27.30 c0,0 -7.61,-8.41 -7.56,-11.17 C 0.02,14.58 2.40,13.37 3.70,13.37 c1.40,0 4.55,13.07 4.55,13.07" style="fill:#000;stroke:none" /><path d="m23.82,65.99 c0,0 -0.63,4.39 -0.14,5.34 0.69,1.33 1.89,0.13 2.58,-1e-6 0.49,-0.17 2.76,-5.20 2.76,-5.20" style="fill:#000;stroke:none" /><path d="m32.01,65.70 c0,0 0.60,3.15 1.23,3.32 1.17,0.32 3.40,-1.25 3.68,-1.94 0.28,-0.70 -0.28,-2.86 -0.28,-2.86" style="fill:#000;stroke:none" /><path d="m23.79,53.80 c0,0 3.18,5.42 3.79,5.52 1.09,0.19 2.19,-2.26 1.94,-2.86 -0.31,-0.77 -5.49,-4.81 -5.49,-4.81" style="fill:#000;stroke:none" /><path d="m30.89,48.86 c0,0 -1.43,12.19 -0.85,12.89 C 30.49,62.30 34.62,62.11 35,61.33 35.32,60.66 29.75,49.57 29.75,49.57 l1.13,-0.70 z" style="fill:#fc089d;stroke:#000; stroke-width:0.30;" /></svg>